<svg width="24" height="24" viewBox="0 0 24 24" fill="none" xmlns="http://www.w3.org/2000/svg">
<path d="M13.033 19.5H10.4513V13.3652C10.4513 13.0072 10.1447 12.8149 9.89468 12.8149H7.5V10.7736H9.89468C10.1447 10.7736 10.4513 10.5813 10.4513 10.2233V8.32661C10.4513 6.58166 11.0575 5.58876 12.066 5.05051C13.0656 4.51698 14.5518 4.37736 16.5 4.60529V6.37592H15.0134C14.45 6.37592 13.9214 6.48612 13.5419 6.85126C13.1581 7.22054 13.033 7.74727 13.033 8.32661V10.2233C13.033 10.5813 13.3396 10.7736 13.5896 10.7736H16.2981L16.0192 12.8149H13.5896C13.3395 12.8149 13.033 13.0072 13.033 13.3652V19.5Z" fill="#F9DCBC" stroke="#F9DCBC"/>
</svg>
