<svg width="24" height="24" viewBox="0 0 24 24" fill="none" xmlns="http://www.w3.org/2000/svg">
<path d="M13.0884 10.3406L12.8334 10.6353L13.0569 10.9546L19.0396 19.5H15.5199L11.2558 13.4093L10.8879 12.8838L10.4681 13.3689L5.16311 19.5H5.09382L10.6019 13.1342L10.8569 12.8395L10.6334 12.5203L5.0184 4.5H8.53807L12.4345 10.0655L12.8024 10.5911L13.2222 10.1059L18.0728 4.5H18.1421L13.0884 10.3406ZM6.09476 4.58453H5.13501L5.685 5.37105L15.3325 19.1678L15.4818 19.3813H15.7422H17.9095H18.8692L18.3193 18.5948L8.67176 4.798L8.52249 4.58453H8.262H6.09476Z" fill="#F9DCBC" stroke="#F9DCBC"/>
</svg>
